# xmcd
#
# Track frame offsets: 
#        187
#        19575
#        36112
#        49650
#        66337
#        86100
#        105587
#        122362
#        137437
#        156112
#
# Disc length: 2287 seconds
#
# Revision: 2
# Processed by: cddbd v1.5.2PL0 Copyright (c) Steve Scherf et al.
# Submitted via: ExactAudioCopyFreeDBPlugin 1.0
#
DISCID=7808ed0a
DTITLE=Irma Thomas - The Way I Feel
DYEAR=1988
DGENRE=Soul
TTITLE0=Old Records
TTITLE1=Baby I Love You
TTITLE2=Sorry Wrong Number
TTITLE3=You Can Think Twice
TTITLE4=Sit Down and Cry
TTITLE5=All I Know is the Way I Feel
TTITLE6=I'm Gonna Hold You to Your Promise
TTITLE7=I'll Take Care of You
TTITLE8=Dancing in the Street
TTITLE9=You Don't Know Nothin' About Love
EXTD=
EXTT0=
EXTT1=
EXTT2=
EXTT3=
EXTT4=
EXTT5=
EXTT6=
EXTT7=
EXTT8=
EXTT9=
PLAYORDER=
